<svg width="2248" height="159" viewBox="0 0 2248 159" fill="none" xmlns="http://www.w3.org/2000/svg">
<g filter="url(#filter0_d_255_22)">
<rect width="2243" height="154" fill="#8E87E6"/>
<rect x="0.5" y="0.5" width="2242" height="153" stroke="black"/>
</g>
<path d="M23.3241 111.784H36.7492V49.1334H23.3241V111.784ZM65.7075 111.784C85.2186 111.784 98.1962 98.7166 98.1962 80.369C98.1962 61.9319 85.2186 49.1334 65.7075 49.1334H42.8849V111.784H65.7075ZM56.3099 60.3209H65.7075C77.7006 60.3209 84.4131 68.376 84.4131 80.369C84.4131 92.2726 77.7006 100.596 65.7075 100.596H56.3099V60.3209ZM101.864 111.784H144.914V100.238H115.289V85.7391H138.559V74.7305H115.289V60.6789H143.929V49.1334H101.864V111.784ZM157.38 111.784L162.213 98.0901H186.021L190.854 111.784H205.263L182.53 49.1334H166.42L143.508 111.784H157.38ZM174.028 63.4534L182.351 87.2606H165.793L174.028 63.4534ZM201.759 91.1986C201.849 103.908 211.783 112.321 227.715 112.321C242.393 112.321 252.059 104.266 252.148 92.5411C252.238 79.9215 242.751 76.6995 232.011 74.7305C221.628 72.7615 216.706 71.6875 216.706 66.586C216.706 61.7529 220.823 59.3364 226.551 59.3364C233.085 59.3364 237.112 63.0059 237.739 68.2865H250.895C250.716 56.2934 241.319 48.5964 226.551 48.5964C212.41 48.5964 203.191 56.4724 203.191 67.5705C203.191 80.2795 212.499 83.6805 223.06 85.6496C233.532 87.7081 238.634 88.7821 238.634 94.0626C238.634 98.9851 234.069 101.67 227.894 101.67C220.196 101.67 215.363 97.4636 214.916 91.3776L201.759 91.1986ZM336.291 112.321C351.596 112.321 362.425 103.013 363.947 89.4086H350.432C348.821 96.3896 343.809 100.954 336.202 100.954C326.088 100.954 320.092 92.4516 320.092 80.4585C320.092 68.376 326.178 59.9629 336.381 59.9629C343.809 59.9629 348.821 64.5274 350.432 71.5085H364.036C362.425 57.9044 351.954 48.5964 337.097 48.5964C318.123 48.5964 306.398 61.2159 306.398 80.4585C306.398 99.7011 317.675 112.321 336.291 112.321ZM426.092 80.4585C426.092 62.2004 413.473 48.5964 395.036 48.5964C376.599 48.5964 363.979 62.2004 363.979 80.4585C363.979 98.7166 376.599 112.321 395.036 112.321C413.473 112.321 426.092 98.7166 426.092 80.4585ZM377.673 80.4585C377.673 68.6445 384.475 59.9629 395.036 59.9629C405.507 59.9629 412.309 68.6445 412.309 80.4585C412.309 92.2726 405.507 100.954 395.036 100.954C384.475 100.954 377.673 92.2726 377.673 80.4585ZM442.904 111.784V72.314L469.485 111.784H481.747V49.1334H468.501V88.6031L441.919 49.1334H429.747V111.784H442.904ZM547.547 80.4585C547.547 62.2004 534.928 48.5964 516.491 48.5964C498.053 48.5964 485.434 62.2004 485.434 80.4585C485.434 98.7166 498.053 112.321 516.491 112.321C534.928 112.321 547.547 98.7166 547.547 80.4585ZM499.127 80.4585C499.127 68.6445 505.929 59.9629 516.491 59.9629C526.962 59.9629 533.764 68.6445 533.764 80.4585C533.764 92.2726 526.962 100.954 516.491 100.954C505.929 100.954 499.127 92.2726 499.127 80.4585ZM578.589 112.321C593.894 112.321 604.723 103.013 606.245 89.4086H592.73C591.119 96.3896 586.107 100.954 578.5 100.954C568.386 100.954 562.39 92.4516 562.39 80.4585C562.39 68.376 568.476 59.9629 578.679 59.9629C586.107 59.9629 591.119 64.5274 592.73 71.5085H606.334C604.723 57.9044 594.252 48.5964 579.395 48.5964C560.421 48.5964 548.696 61.2159 548.696 80.4585C548.696 99.7011 559.973 112.321 578.589 112.321ZM609.395 111.784H622.82V49.1334H609.395V111.784ZM628.956 111.784H641.754V69.808L658.043 111.784H668.962L685.251 69.808V111.784H698.05V49.1334H680.776L663.95 95.1366L646.587 49.1334H628.956V111.784ZM704.279 111.784H717.704V49.1334H704.279V111.784ZM723.84 111.784H766.89V100.238H737.265V85.7391H760.535V74.7305H737.265V60.6789H765.905V49.1334H723.84V111.784ZM783.652 111.784V72.314L810.234 111.784H822.495V49.1334H809.249V88.6031L782.668 49.1334H770.496V111.784H783.652ZM825.108 60.6789H843.187V111.784H856.613V60.6789H874.781V49.1334H825.108V60.6789ZM932.941 80.4585C932.941 62.2004 920.322 48.5964 901.884 48.5964C883.447 48.5964 870.828 62.2004 870.828 80.4585C870.828 98.7166 883.447 112.321 901.884 112.321C920.322 112.321 932.941 98.7166 932.941 80.4585ZM884.521 80.4585C884.521 68.6445 891.323 59.9629 901.884 59.9629C912.356 59.9629 919.158 68.6445 919.158 80.4585C919.158 92.2726 912.356 100.954 901.884 100.954C891.323 100.954 884.521 92.2726 884.521 80.4585ZM934.09 91.1986C934.179 103.908 944.114 112.321 960.045 112.321C974.723 112.321 984.389 104.266 984.479 92.5411C984.568 79.9215 975.081 76.6995 964.341 74.7305C953.959 72.7615 949.036 71.6875 949.036 66.586C949.036 61.7529 953.153 59.3364 958.881 59.3364C965.415 59.3364 969.443 63.0059 970.069 68.2865H983.226C983.047 56.2934 973.649 48.5964 958.881 48.5964C944.74 48.5964 935.522 56.4724 935.522 67.5705C935.522 80.2795 944.83 83.6805 955.391 85.6496C965.863 87.7081 970.964 88.7821 970.964 94.0626C970.964 98.9851 966.4 101.67 960.224 101.67C952.527 101.67 947.694 97.4636 947.246 91.3776L934.09 91.1986ZM1068.62 112.321C1083.93 112.321 1094.76 103.013 1096.28 89.4086H1082.76C1081.15 96.3896 1076.14 100.954 1068.53 100.954C1058.42 100.954 1052.42 92.4516 1052.42 80.4585C1052.42 68.376 1058.51 59.9629 1068.71 59.9629C1076.14 59.9629 1081.15 64.5274 1082.76 71.5085H1096.37C1094.76 57.9044 1084.28 48.5964 1069.43 48.5964C1050.45 48.5964 1038.73 61.2159 1038.73 80.4585C1038.73 99.7011 1050.01 112.321 1068.62 112.321ZM1098.98 84.7546C1098.98 102.565 1107.84 112.321 1124.67 112.321C1141.58 112.321 1150.44 102.565 1150.44 84.7546V49.1334H1137.02V85.4706C1137.02 95.4051 1133.35 100.775 1124.67 100.775C1116.07 100.775 1112.4 95.4051 1112.4 85.4706V49.1334H1098.98V84.7546ZM1156.22 111.784H1169.65V90.7511H1180.92L1191.48 111.784H1206.34L1193.99 87.6186C1200.52 84.4861 1204.73 78.042 1204.73 69.987C1204.73 57.2779 1195.51 49.1334 1181.73 49.1334H1156.22V111.784ZM1180.66 60.3209C1187.01 60.3209 1191.04 64.0799 1191.04 69.987C1191.04 75.8045 1187.01 79.5635 1180.66 79.5635H1169.65V60.3209H1180.66ZM1208.82 111.784H1222.25V49.1334H1208.82V111.784ZM1287.99 80.4585C1287.99 62.2004 1275.37 48.5964 1256.93 48.5964C1238.49 48.5964 1225.88 62.2004 1225.88 80.4585C1225.88 98.7166 1238.49 112.321 1256.93 112.321C1275.37 112.321 1287.99 98.7166 1287.99 80.4585ZM1239.57 80.4585C1239.57 68.6445 1246.37 59.9629 1256.93 59.9629C1267.4 59.9629 1274.21 68.6445 1274.21 80.4585C1274.21 92.2726 1267.4 100.954 1256.93 100.954C1246.37 100.954 1239.57 92.2726 1239.57 80.4585ZM1289.14 91.1986C1289.23 103.908 1299.16 112.321 1315.09 112.321C1329.77 112.321 1339.44 104.266 1339.53 92.5411C1339.62 79.9215 1330.13 76.6995 1319.39 74.7305C1309.01 72.7615 1304.08 71.6875 1304.08 66.586C1304.08 61.7529 1308.2 59.3364 1313.93 59.3364C1320.46 59.3364 1324.49 63.0059 1325.12 68.2865H1338.27C1338.09 56.2934 1328.7 48.5964 1313.93 48.5964C1299.79 48.5964 1290.57 56.4724 1290.57 67.5705C1290.57 80.2795 1299.88 83.6805 1310.44 85.6496C1320.91 87.7081 1326.01 88.7821 1326.01 94.0626C1326.01 98.9851 1321.45 101.67 1315.27 101.67C1307.57 101.67 1302.74 97.4636 1302.29 91.3776L1289.14 91.1986ZM1343.11 111.784H1356.53V49.1334H1343.11V111.784ZM1385.49 111.784C1405 111.784 1417.98 98.7166 1417.98 80.369C1417.98 61.9319 1405 49.1334 1385.49 49.1334H1362.67V111.784H1385.49ZM1376.09 60.3209H1385.49C1397.48 60.3209 1404.2 68.376 1404.2 80.369C1404.2 92.2726 1397.48 100.596 1385.49 100.596H1376.09V60.3209ZM1427.8 111.784L1432.63 98.0901H1456.44L1461.27 111.784H1475.68L1452.95 49.1334H1436.84L1413.92 111.784H1427.8ZM1444.44 63.4534L1452.77 87.2606H1436.21L1444.44 63.4534ZM1499.78 111.784C1519.29 111.784 1532.27 98.7166 1532.27 80.369C1532.27 61.9319 1519.29 49.1334 1499.78 49.1334H1476.95V111.784H1499.78ZM1490.38 60.3209H1499.78C1511.77 60.3209 1518.48 68.376 1518.48 80.369C1518.48 92.2726 1511.77 100.596 1499.78 100.596H1490.38V60.3209ZM1535.93 111.784L1578.98 111.784V100.238L1549.36 100.238V85.7391H1572.63V74.7305H1549.36V60.6789H1578V49.1334H1535.93V111.784ZM1580.08 91.1986C1580.17 103.908 1590.11 112.321 1606.04 112.321C1620.72 112.321 1630.38 104.266 1630.47 92.5411C1630.56 79.9215 1621.08 76.6995 1610.34 74.7305C1599.95 72.7615 1595.03 71.6875 1595.03 66.586C1595.03 61.7529 1599.15 59.3364 1604.88 59.3364C1611.41 59.3364 1615.44 63.0059 1616.06 68.2865H1629.22C1629.04 56.2934 1619.64 48.5964 1604.88 48.5964C1590.73 48.5964 1581.52 56.4724 1581.52 67.5705C1581.52 80.2795 1590.82 83.6805 1601.38 85.6496C1611.86 87.7081 1616.96 88.7821 1616.96 94.0626C1616.96 98.9851 1612.39 101.67 1606.22 101.67C1598.52 101.67 1593.69 97.4636 1593.24 91.3776L1580.08 91.1986ZM1687.23 111.784H1700.65V49.1334H1687.23V111.784ZM1719.95 111.784V72.314L1746.53 111.784H1758.79V49.1334H1745.54V88.6031L1718.96 49.1334H1706.79V111.784H1719.95ZM1820.74 100.238C1819.94 100.238 1819.31 100.059 1818.77 99.8801C1822.53 94.5996 1824.59 87.8871 1824.59 80.4585C1824.59 62.2004 1811.97 48.5964 1793.53 48.5964C1775.1 48.5964 1762.48 62.2004 1762.48 80.4585C1762.48 98.7166 1775.1 112.321 1793.53 112.321C1800.07 112.321 1805.97 110.62 1810.72 107.577C1812.86 110.262 1815.1 111.784 1820.47 111.784H1826.92V100.238H1820.74ZM1776.17 80.4585C1776.17 68.6445 1782.97 59.9629 1793.53 59.9629C1804 59.9629 1810.81 68.6445 1810.81 80.4585C1810.81 83.591 1810.36 86.5446 1809.37 89.1401L1807.94 87.3501C1805.79 84.6651 1804 82.7855 1798.72 82.7855H1791.92V94.1521H1797.74C1799.71 94.1521 1800.87 95.1366 1802.21 96.9266L1803.11 98.0006C1800.42 99.8801 1797.2 100.954 1793.53 100.954C1782.97 100.954 1776.17 92.2726 1776.17 80.4585ZM1828.41 84.7546C1828.41 102.565 1837.27 112.321 1854.1 112.321C1871.01 112.321 1879.87 102.565 1879.87 84.7546V49.1334H1866.45V85.4706C1866.45 95.4051 1862.78 100.775 1854.1 100.775C1845.5 100.775 1841.83 95.4051 1841.83 85.4706V49.1334H1828.41V84.7546ZM1885.65 111.784H1899.08V49.1334H1885.65V111.784ZM1905.21 111.784H1948.26V100.238H1918.64V85.7391H1941.91V74.7305H1918.64V60.6789H1947.28V49.1334H1905.21V111.784ZM1947.41 60.6789H1965.49V111.784H1978.92V60.6789H1997.09V49.1334H1947.41V60.6789ZM1999.3 84.7546C1999.3 102.565 2008.16 112.321 2024.99 112.321C2041.9 112.321 2050.76 102.565 2050.76 84.7546V49.1334H2037.34V85.4706C2037.34 95.4051 2033.67 100.775 2024.99 100.775C2016.39 100.775 2012.72 95.4051 2012.72 85.4706V49.1334H1999.3V84.7546ZM2079.36 111.784C2098.87 111.784 2111.85 98.7166 2111.85 80.369C2111.85 61.9319 2098.87 49.1334 2079.36 49.1334H2056.54V111.784H2079.36ZM2069.97 60.3209H2079.36C2091.36 60.3209 2098.07 68.376 2098.07 80.369C2098.07 92.2726 2091.36 100.596 2079.36 100.596H2069.97V60.3209ZM2115.52 111.784H2158.57V100.238H2128.94V85.7391H2152.21V74.7305H2128.94V60.6789H2157.58V49.1334H2115.52V111.784ZM2159.67 91.1986C2159.76 103.908 2169.69 112.321 2185.62 112.321C2200.3 112.321 2209.97 104.266 2210.06 92.5411C2210.15 79.9215 2200.66 76.6995 2189.92 74.7305C2179.54 72.7615 2174.62 71.6875 2174.62 66.586C2174.62 61.7529 2178.73 59.3364 2184.46 59.3364C2190.99 59.3364 2195.02 63.0059 2195.65 68.2865H2208.8C2208.63 56.2934 2199.23 48.5964 2184.46 48.5964C2170.32 48.5964 2161.1 56.4724 2161.1 67.5705C2161.1 80.2795 2170.41 83.6805 2180.97 85.6496C2191.44 87.7081 2196.54 88.7821 2196.54 94.0626C2196.54 98.9851 2191.98 101.67 2185.8 101.67C2178.11 101.67 2173.27 97.4636 2172.83 91.3776L2159.67 91.1986Z" fill="#F1F1F1"/>
<circle cx="278.324" cy="86.7808" r="9.61111" fill="#F1F1F1" stroke="black"/>
<circle cx="1010.85" cy="82.1966" r="10.1111" fill="#F1F1F1"/>
<circle cx="1657.11" cy="84.2657" r="10.1111" fill="#F1F1F1"/>
<defs>
<filter id="filter0_d_255_22" x="0" y="0" width="2248" height="159" filterUnits="userSpaceOnUse" color-interpolation-filters="sRGB">
<feFlood flood-opacity="0" result="BackgroundImageFix"/>
<feColorMatrix in="SourceAlpha" type="matrix" values="0 0 0 0 0 0 0 0 0 0 0 0 0 0 0 0 0 0 127 0" result="hardAlpha"/>
<feOffset dx="5" dy="5"/>
<feComposite in2="hardAlpha" operator="out"/>
<feColorMatrix type="matrix" values="0 0 0 0 0 0 0 0 0 0 0 0 0 0 0 0 0 0 1 0"/>
<feBlend mode="normal" in2="BackgroundImageFix" result="effect1_dropShadow_255_22"/>
<feBlend mode="normal" in="SourceGraphic" in2="effect1_dropShadow_255_22" result="shape"/>
</filter>
</defs>
</svg>
