<svg width="2271" height="159" viewBox="0 0 2271 159" fill="none" xmlns="http://www.w3.org/2000/svg">
<g filter="url(#filter0_d_255_23)">
<rect width="2266" height="154" fill="#FAEC6F"/>
<rect x="0.5" y="0.5" width="2265" height="153" stroke="black"/>
</g>
<path d="M73.8626 112.32C89.1672 112.32 99.9968 103.012 101.518 89.4081H88.0037C86.3927 96.3891 81.3807 100.954 73.7731 100.954C63.6596 100.954 57.6631 92.4511 57.6631 80.458C57.6631 68.3755 63.7491 59.9624 73.9521 59.9624C81.3807 59.9624 86.3927 64.527 88.0037 71.508H101.608C99.9968 57.9039 89.5252 48.5959 74.6681 48.5959C55.694 48.5959 43.9695 61.2154 43.9695 80.458C43.9695 99.7006 55.2465 112.32 73.8626 112.32ZM163.664 80.458C163.664 62.1999 151.044 48.5959 132.607 48.5959C114.17 48.5959 101.55 62.1999 101.55 80.458C101.55 98.7161 114.17 112.32 132.607 112.32C151.044 112.32 163.664 98.7161 163.664 80.458ZM115.244 80.458C115.244 68.644 122.046 59.9624 132.607 59.9624C143.079 59.9624 149.881 68.644 149.881 80.458C149.881 92.2721 143.079 100.954 132.607 100.954C122.046 100.954 115.244 92.2721 115.244 80.458ZM180.475 111.783V72.3135L207.057 111.783L219.318 111.783V49.1329H206.072V88.6026L179.491 49.1329L167.319 49.1329V111.783H180.475ZM285.119 80.458C285.119 62.1999 272.499 48.5959 254.062 48.5959C235.625 48.5959 223.005 62.1999 223.005 80.458C223.005 98.7161 235.625 112.32 254.062 112.32C272.499 112.32 285.119 98.7161 285.119 80.458ZM236.699 80.458C236.699 68.644 243.501 59.9624 254.062 59.9624C264.534 59.9624 271.336 68.644 271.336 80.458C271.336 92.2721 264.534 100.954 254.062 100.954C243.501 100.954 236.699 92.2721 236.699 80.458ZM316.161 112.32C331.465 112.32 342.295 103.012 343.816 89.4081H330.302C328.691 96.3891 323.679 100.954 316.071 100.954C305.958 100.954 299.961 92.4511 299.961 80.458C299.961 68.3755 306.047 59.9624 316.25 59.9624C323.679 59.9624 328.691 64.527 330.302 71.508H343.906C342.295 57.9039 331.823 48.5959 316.966 48.5959C297.992 48.5959 286.267 61.2154 286.267 80.458C286.267 99.7006 297.545 112.32 316.161 112.32ZM346.966 111.783H360.391V49.1329H346.966V111.783ZM366.527 111.783H379.326V69.8075L395.615 111.783H406.534L422.823 69.8075V111.783H435.621V49.1329H418.348L401.522 95.1361L384.159 49.1329H366.527V111.783ZM441.851 111.783H455.276V49.1329H441.851V111.783ZM461.412 111.783H504.461V100.238H474.837V85.7386H498.107V74.73H474.837V60.6784H503.477V49.1329H461.412V111.783ZM521.224 111.783V72.3135L547.805 111.783L560.067 111.783V49.1329H546.821V88.6026L520.239 49.1329L508.067 49.1329V111.783H521.224ZM562.68 60.6784H580.759V111.783H594.184V60.6784L612.353 60.6784V49.1329L562.68 49.1329V60.6784ZM670.513 80.458C670.513 62.1999 657.893 48.5959 639.456 48.5959C621.019 48.5959 608.399 62.1999 608.399 80.458C608.399 98.7161 621.019 112.32 639.456 112.32C657.893 112.32 670.513 98.7161 670.513 80.458ZM622.093 80.458C622.093 68.644 628.895 59.9624 639.456 59.9624C649.927 59.9624 656.729 68.644 656.729 80.458C656.729 92.2721 649.927 100.954 639.456 100.954C628.895 100.954 622.093 92.2721 622.093 80.458ZM671.661 91.1981C671.751 103.907 681.685 112.32 697.617 112.32C712.295 112.32 721.961 104.265 722.05 92.5406C722.14 79.921 712.653 76.699 701.913 74.73C691.53 72.761 686.608 71.687 686.608 66.5855C686.608 61.7524 690.725 59.3359 696.453 59.3359C702.987 59.3359 707.014 63.0055 707.641 68.286H720.797C720.618 56.2929 711.221 48.5959 696.453 48.5959C682.312 48.5959 673.093 56.4719 673.093 67.57C673.093 80.279 682.401 83.6801 692.962 85.6491C703.434 87.7076 708.536 88.7816 708.536 94.0621C708.536 98.9846 703.971 101.67 697.796 101.67C690.098 101.67 685.265 97.4631 684.818 91.3771L671.661 91.1981ZM778.806 111.783H792.231V49.1329H778.806V111.783ZM821.189 111.783C840.7 111.783 853.678 98.7161 853.678 80.3685C853.678 61.9314 840.7 49.1329 821.189 49.1329H798.367V111.783H821.189ZM811.792 60.3204H821.189C833.182 60.3204 839.895 68.3755 839.895 80.3685C839.895 92.2721 833.182 100.596 821.189 100.596H811.792V60.3204ZM857.346 111.783L900.396 111.783V100.238L870.771 100.238V85.7386H894.041V74.73H870.771V60.6784H899.411V49.1329H857.346V111.783ZM912.862 111.783L917.695 98.0896H941.502L946.335 111.783H960.745L938.012 49.1329L921.902 49.1329L898.99 111.783H912.862ZM929.509 63.453L937.833 87.2601H921.275L929.509 63.453ZM957.241 91.1981C957.331 103.907 967.265 112.32 983.196 112.32C997.874 112.32 1007.54 104.265 1007.63 92.5406C1007.72 79.921 998.232 76.699 987.492 74.73C977.11 72.761 972.188 71.687 972.188 66.5855C972.188 61.7524 976.305 59.3359 982.033 59.3359C988.566 59.3359 992.594 63.0055 993.22 68.286H1006.38C1006.2 56.2929 996.8 48.5959 982.033 48.5959C967.892 48.5959 958.673 56.4719 958.673 67.57C958.673 80.279 967.981 83.6801 978.542 85.6491C989.014 87.7076 994.115 88.7816 994.115 94.0621C994.115 98.9846 989.551 101.67 983.375 101.67C975.678 101.67 970.845 97.4631 970.398 91.3771L957.241 91.1981ZM1064.39 111.783H1077.81V49.1329H1064.39V111.783ZM1097.1 111.783V72.3135L1123.68 111.783H1135.95V49.1329H1122.7V88.6026L1096.12 49.1329H1083.95V111.783H1097.1ZM1197.9 100.238C1197.09 100.238 1196.47 100.059 1195.93 99.8796C1199.69 94.5991 1201.75 87.8866 1201.75 80.458C1201.75 62.1999 1189.13 48.5959 1170.69 48.5959C1152.25 48.5959 1139.63 62.1999 1139.63 80.458C1139.63 98.7161 1152.25 112.32 1170.69 112.32C1177.22 112.32 1183.13 110.62 1187.87 107.577C1190.02 110.262 1192.26 111.783 1197.63 111.783H1204.07V100.238H1197.9ZM1153.33 80.458C1153.33 68.644 1160.13 59.9624 1170.69 59.9624C1181.16 59.9624 1187.96 68.644 1187.96 80.458C1187.96 83.5906 1187.52 86.5441 1186.53 89.1396L1185.1 87.3496C1182.95 84.6646 1181.16 82.7851 1175.88 82.7851H1169.08V94.1516H1174.9C1176.87 94.1516 1178.03 95.1361 1179.37 96.9261L1180.27 98.0001C1177.58 99.8796 1174.36 100.954 1170.69 100.954C1160.13 100.954 1153.33 92.2721 1153.33 80.458ZM1205.57 84.7541C1205.57 102.565 1214.43 112.32 1231.25 112.32C1248.17 112.32 1257.03 102.565 1257.03 84.7541V49.1329H1243.6V85.4701C1243.6 95.4046 1239.93 100.775 1231.25 100.775C1222.66 100.775 1218.99 95.4046 1218.99 85.4701V49.1329H1205.57V84.7541ZM1262.81 111.783H1276.23V49.1329H1262.81V111.783ZM1282.37 111.783H1325.42V100.238H1295.79V85.7386H1319.06V74.73H1295.79V60.6784H1324.43V49.1329H1282.37V111.783ZM1324.57 60.6784H1342.65V111.783H1356.07V60.6784H1374.24V49.1329H1324.57V60.6784ZM1376.46 84.7541C1376.46 102.565 1385.32 112.32 1402.14 112.32C1419.06 112.32 1427.92 102.565 1427.92 84.7541V49.1329H1414.49V85.4701C1414.49 95.4046 1410.82 100.775 1402.14 100.775C1393.55 100.775 1389.88 95.4046 1389.88 85.4701V49.1329H1376.46V84.7541ZM1456.52 111.783C1476.03 111.783 1489.01 98.7161 1489.01 80.3685C1489.01 61.9314 1476.03 49.1329 1456.52 49.1329H1433.7V111.783H1456.52ZM1447.12 60.3204H1456.52C1468.51 60.3204 1475.23 68.3755 1475.23 80.3685C1475.23 92.2721 1468.51 100.596 1456.52 100.596H1447.12V60.3204ZM1492.68 111.783H1535.73V100.238H1506.1V85.7386H1529.37V74.73H1506.1V60.6784L1534.74 60.6784V49.1329L1492.68 49.1329V111.783ZM1536.83 91.1981C1536.92 103.907 1546.85 112.32 1562.78 112.32C1577.46 112.32 1587.13 104.265 1587.22 92.5406C1587.3 79.921 1577.82 76.699 1567.08 74.73C1556.7 72.761 1551.77 71.687 1551.77 66.5855C1551.77 61.7524 1555.89 59.3359 1561.62 59.3359C1568.15 59.3359 1572.18 63.0055 1572.81 68.286H1585.96C1585.78 56.2929 1576.39 48.5959 1561.62 48.5959C1547.48 48.5959 1538.26 56.4719 1538.26 67.57C1538.26 80.279 1547.57 83.6801 1558.13 85.6491C1568.6 87.7076 1573.7 88.7816 1573.7 94.0621C1573.7 98.9846 1569.14 101.67 1562.96 101.67C1555.26 101.67 1550.43 97.4631 1549.98 91.3771L1536.83 91.1981ZM1671.36 112.32C1686.66 112.32 1697.49 103.012 1699.01 89.4081H1685.5C1683.89 96.3891 1678.88 100.954 1671.27 100.954C1661.16 100.954 1655.16 92.4511 1655.16 80.458C1655.16 68.3755 1661.24 59.9624 1671.45 59.9624C1678.88 59.9624 1683.89 64.527 1685.5 71.508H1699.1C1697.49 57.9039 1687.02 48.5959 1672.16 48.5959C1653.19 48.5959 1641.47 61.2154 1641.47 80.458C1641.47 99.7006 1652.74 112.32 1671.36 112.32ZM1701.72 84.7541C1701.72 102.565 1710.58 112.32 1727.4 112.32C1744.32 112.32 1753.18 102.565 1753.18 84.7541V49.1329H1739.75V85.4701C1739.75 95.4046 1736.08 100.775 1727.4 100.775C1718.81 100.775 1715.14 95.4046 1715.14 85.4701V49.1329H1701.72V84.7541ZM1758.96 111.783H1772.38V90.7506H1783.66L1794.22 111.783H1809.08L1796.73 87.6181C1803.26 84.4856 1807.47 78.0415 1807.47 69.9865C1807.47 57.2774 1798.25 49.1329 1784.47 49.1329H1758.96V111.783ZM1783.39 60.3204C1789.75 60.3204 1793.77 64.0795 1793.77 69.9865C1793.77 75.804 1789.75 79.563 1783.39 79.563H1772.38V60.3204H1783.39ZM1811.56 111.783H1824.98V49.1329H1811.56V111.783ZM1890.73 80.458C1890.73 62.1999 1878.11 48.5959 1859.67 48.5959C1841.23 48.5959 1828.61 62.1999 1828.61 80.458C1828.61 98.7161 1841.23 112.32 1859.67 112.32C1878.11 112.32 1890.73 98.7161 1890.73 80.458ZM1842.31 80.458C1842.31 68.644 1849.11 59.9624 1859.67 59.9624C1870.14 59.9624 1876.94 68.644 1876.94 80.458C1876.94 92.2721 1870.14 100.954 1859.67 100.954C1849.11 100.954 1842.31 92.2721 1842.31 80.458ZM1891.87 91.1981C1891.96 103.907 1901.9 112.32 1917.83 112.32C1932.51 112.32 1942.17 104.265 1942.26 92.5406C1942.35 79.921 1932.87 76.699 1922.13 74.73C1911.74 72.761 1906.82 71.687 1906.82 66.5855C1906.82 61.7524 1910.94 59.3359 1916.67 59.3359C1923.2 59.3359 1927.23 63.0055 1927.85 68.286H1941.01C1940.83 56.2929 1931.43 48.5959 1916.67 48.5959C1902.52 48.5959 1893.31 56.4719 1893.31 67.57C1893.31 80.279 1902.61 83.6801 1913.18 85.6491C1923.65 87.7076 1928.75 88.7816 1928.75 94.0621C1928.75 98.9846 1924.18 101.67 1918.01 101.67C1910.31 101.67 1905.48 97.4631 1905.03 91.3771L1891.87 91.1981ZM1945.84 111.783H1959.27V49.1329H1945.84V111.783ZM1988.23 111.783C2007.74 111.783 2020.72 98.7161 2020.72 80.3685C2020.72 61.9314 2007.74 49.1329 1988.23 49.1329H1965.4V111.783H1988.23ZM1978.83 60.3204H1988.23C2000.22 60.3204 2006.93 68.3755 2006.93 80.3685C2006.93 92.2721 2000.22 100.596 1988.23 100.596H1978.83V60.3204ZM2030.53 111.783L2035.37 98.0896H2059.17L2064.01 111.783H2078.42L2055.68 49.1329H2039.57L2016.66 111.783H2030.53ZM2047.18 63.453L2055.5 87.2601H2038.95L2047.18 63.453ZM2102.51 111.783C2122.03 111.783 2135 98.7161 2135 80.3685C2135 61.9314 2122.03 49.1329 2102.51 49.1329H2079.69V111.783H2102.51ZM2093.12 60.3204H2102.51C2114.51 60.3204 2121.22 68.3755 2121.22 80.3685C2121.22 92.2721 2114.51 100.596 2102.51 100.596H2093.12V60.3204ZM2138.67 111.783H2181.72V100.238H2152.1V85.7386H2175.37V74.73H2152.1V60.6784H2180.74V49.1329H2138.67V111.783ZM2182.82 91.1981C2182.91 103.907 2192.84 112.32 2208.78 112.32C2223.45 112.32 2233.12 104.265 2233.21 92.5406C2233.3 79.921 2223.81 76.699 2213.07 74.73C2202.69 72.761 2197.77 71.687 2197.77 66.5855C2197.77 61.7524 2201.88 59.3359 2207.61 59.3359C2214.15 59.3359 2218.17 63.0055 2218.8 68.286H2231.96C2231.78 56.2929 2222.38 48.5959 2207.61 48.5959C2193.47 48.5959 2184.25 56.4719 2184.25 67.57C2184.25 80.279 2193.56 83.6801 2204.12 85.6491C2214.59 87.7076 2219.69 88.7816 2219.69 94.0621C2219.69 98.9846 2215.13 101.67 2208.95 101.67C2201.26 101.67 2196.42 97.4631 2195.98 91.3771L2182.82 91.1981Z" fill="black"/>
<circle cx="1037.11" cy="83.7017" r="10.1111" fill="black"/>
<circle cx="1615.11" cy="84.3587" r="10.1111" fill="black"/>
<circle cx="745.186" cy="83.1865" r="10.1111" transform="rotate(6.47264 745.186 83.1865)" fill="black"/>
<defs>
<filter id="filter0_d_255_23" x="0" y="0" width="2271" height="159" filterUnits="userSpaceOnUse" color-interpolation-filters="sRGB">
<feFlood flood-opacity="0" result="BackgroundImageFix"/>
<feColorMatrix in="SourceAlpha" type="matrix" values="0 0 0 0 0 0 0 0 0 0 0 0 0 0 0 0 0 0 127 0" result="hardAlpha"/>
<feOffset dx="5" dy="5"/>
<feComposite in2="hardAlpha" operator="out"/>
<feColorMatrix type="matrix" values="0 0 0 0 0 0 0 0 0 0 0 0 0 0 0 0 0 0 1 0"/>
<feBlend mode="normal" in2="BackgroundImageFix" result="effect1_dropShadow_255_23"/>
<feBlend mode="normal" in="SourceGraphic" in2="effect1_dropShadow_255_23" result="shape"/>
</filter>
</defs>
</svg>
