<svg width="54" height="54" viewBox="0 0 54 54" fill="none" xmlns="http://www.w3.org/2000/svg">
<g filter="url(#filter0_d_244_41)">
<path d="M6.525 16.0875C7.0875 15.525 7.7535 15.2438 8.523 15.2438C9.2925 15.2438 9.95775 15.525 10.5188 16.0875L27 32.5688L43.5375 16.0313C44.0625 15.5063 44.7188 15.2438 45.5063 15.2438C46.2937 15.2438 46.9688 15.525 47.5313 16.0875C48.0937 16.65 48.375 17.316 48.375 18.0855C48.375 18.855 48.0937 19.5203 47.5312 20.0813L28.575 38.9813C28.35 39.2063 28.1063 39.366 27.8438 39.4605C27.5813 39.555 27.3 39.6015 27 39.6C26.7 39.6 26.4188 39.5528 26.1563 39.4583C25.8938 39.3638 25.65 39.2048 25.425 38.9813L6.46875 20.025C5.94375 19.5 5.68125 18.8528 5.68125 18.0833C5.68125 17.3138 5.9625 16.6485 6.525 16.0875Z" fill="white"/>
<path d="M6.87809 16.4415L6.87856 16.4411C7.35083 15.9688 7.89104 15.7438 8.523 15.7438C9.15493 15.7438 9.69413 15.9688 10.1647 16.4406L10.1652 16.4411L26.6464 32.9223L27 33.2759L27.3536 32.9223L43.8911 16.3848C44.3162 15.9597 44.8424 15.7438 45.5063 15.7438C46.1596 15.7438 46.7079 15.9713 47.1777 16.4411C47.65 16.9133 47.875 17.4536 47.875 18.0855C47.875 18.7174 47.65 19.2566 47.1782 19.7272C47.1782 19.7272 47.1782 19.7272 47.1782 19.7272L28.222 38.6272L28.2214 38.6277C28.0412 38.808 27.8585 38.9238 27.6744 38.9901C27.471 39.0633 27.2484 39.1013 27.0025 39.1L27 39.1C26.7534 39.1 26.5298 39.0614 26.3256 38.9878C26.1408 38.9213 25.958 38.8058 25.7779 38.6271C25.7777 38.6269 25.7776 38.6267 25.7774 38.6265L6.82231 19.6715C6.39482 19.244 6.18126 18.7256 6.18126 18.0833C6.18126 17.4513 6.40623 16.9121 6.87809 16.4415Z" stroke="black"/>
</g>
<defs>
<filter id="filter0_d_244_41" x="5.68115" y="15.2438" width="43.6938" height="26.3563" filterUnits="userSpaceOnUse" color-interpolation-filters="sRGB">
<feFlood flood-opacity="0" result="BackgroundImageFix"/>
<feColorMatrix in="SourceAlpha" type="matrix" values="0 0 0 0 0 0 0 0 0 0 0 0 0 0 0 0 0 0 127 0" result="hardAlpha"/>
<feOffset dx="1" dy="2"/>
<feComposite in2="hardAlpha" operator="out"/>
<feColorMatrix type="matrix" values="0 0 0 0 0 0 0 0 0 0 0 0 0 0 0 0 0 0 1 0"/>
<feBlend mode="normal" in2="BackgroundImageFix" result="effect1_dropShadow_244_41"/>
<feBlend mode="normal" in="SourceGraphic" in2="effect1_dropShadow_244_41" result="shape"/>
</filter>
</defs>
</svg>
