<svg width="24" height="24" viewBox="0 0 24 24" fill="none" xmlns="http://www.w3.org/2000/svg">
<g clip-path="url(#clip0_242_125)">
<path d="M10.5212 2.5314C8.7084 3.72885 6.97348 5.70632 5.50488 8.24999C4.03629 10.7937 3.19121 13.2849 3.06062 15.4536C2.93003 17.6223 3.56581 19.2548 4.80152 19.9683L8.69863 22.2183C9.93434 22.9317 11.6762 22.6578 13.4789 21.4686C15.2816 20.2794 17.0267 18.2937 18.4953 15.75C19.9639 13.2063 20.8089 10.7151 20.9395 8.5464C21.0701 6.37771 20.4343 4.74516 19.1986 4.03173L15.3015 1.78173C14.0658 1.06829 12.3239 1.34217 10.5212 2.5314ZM6.80392 8.99999C9.74017 3.91426 13.19 2.29467 14.5515 3.08077C15.9131 3.86686 16.2354 7.66426 13.2991 12.75C10.3629 17.8357 6.91307 19.4553 5.55152 18.6692C4.18996 17.8831 3.86767 14.0857 6.80392 8.99999ZM14.2118 14.143L16.8099 15.643C15.8689 17.1565 14.8916 18.3243 13.9517 19.189L11.4089 17.7208C12.4825 16.6442 13.4234 15.443 14.2118 14.143ZM14.9618 12.8439C15.6935 11.5111 16.2633 10.0956 16.6589 8.62758L19.2009 10.0952C18.922 11.3415 18.3993 12.7718 17.559 14.3434L14.9618 12.8439ZM9.44863 20.9192L7.94905 20.0534C8.52435 19.8406 9.07241 19.5603 9.58179 19.2186C9.79394 19.078 10.007 18.9228 10.2156 18.7639L12.6846 20.1894C11.306 21.1072 10.1217 21.3078 9.44863 20.9192ZM19.4346 8.49807L16.9656 7.0726C17.0002 6.81007 17.0267 6.55041 17.0424 6.2964C17.0837 5.68439 17.0524 5.06963 16.9491 4.46498L18.4486 5.33077C19.1217 5.71936 19.5401 6.84534 19.4346 8.49807Z" fill="black"/>
</g>
<defs>
<clipPath id="clip0_242_125">
<rect width="24" height="24" fill="white"/>
</clipPath>
</defs>
</svg>
