<svg width="67" height="68" viewBox="0 0 67 68" fill="none" xmlns="http://www.w3.org/2000/svg">
<circle cx="33.5" cy="34" r="33.2423" fill="#D63939" stroke="black" stroke-width="0.515385"/>
<path d="M32.9852 37.0166L22.3746 47.6271C21.9776 48.0241 21.4724 48.2226 20.8588 48.2226C20.2453 48.2226 19.74 48.0241 19.343 47.6271C18.9461 47.2301 18.7476 46.7249 18.7476 46.1113C18.7476 45.4978 18.9461 44.9925 19.343 44.5955L29.9536 33.985L19.343 23.3744C18.9461 22.9775 18.7476 22.4722 18.7476 21.8587C18.7476 21.2451 18.9461 20.7399 19.343 20.3429C19.74 19.9459 20.2453 19.7474 20.8588 19.7474C21.4724 19.7474 21.9776 19.9459 22.3746 20.3429L32.9852 30.9534L43.5957 20.3429C43.9927 19.9459 44.498 19.7474 45.1115 19.7474C45.725 19.7474 46.2303 19.9459 46.6273 20.3429C47.0243 20.7399 47.2228 21.2451 47.2228 21.8587C47.2228 22.4722 47.0243 22.9775 46.6273 23.3744L36.0168 33.985L46.6273 44.5955C47.0243 44.9925 47.2228 45.4978 47.2228 46.1113C47.2228 46.7249 47.0243 47.2301 46.6273 47.6271C46.2303 48.0241 45.725 48.2226 45.1115 48.2226C44.498 48.2226 43.9927 48.0241 43.5957 47.6271L32.9852 37.0166Z" fill="white"/>
</svg>
