<svg width="20" height="20" viewBox="0 0 20 20" fill="none" xmlns="http://www.w3.org/2000/svg">
<path d="M3.33431 2.5H16.6676C16.8887 2.5 17.1006 2.5878 17.2569 2.74408C17.4132 2.90036 17.501 3.11232 17.501 3.33333V16.6667C17.501 16.8877 17.4132 17.0996 17.2569 17.2559C17.1006 17.4122 16.8887 17.5 16.6676 17.5H3.33431C3.1133 17.5 2.90133 17.4122 2.74505 17.2559C2.58877 17.0996 2.50098 16.8877 2.50098 16.6667V3.33333C2.50098 3.11232 2.58877 2.90036 2.74505 2.74408C2.90133 2.5878 3.1133 2.5 3.33431 2.5ZM14.4176 13.2833C14.3343 13.2417 14.2926 13.1167 14.2926 13.0325V6.67167C14.2926 6.58833 14.3343 6.46333 14.4176 6.37917L15.2135 5.45833V5.41667H12.3676L10.2343 10.815L7.80598 5.41667H4.87681V5.45833L5.63014 6.505C5.79764 6.67167 5.83931 6.92333 5.83931 7.1325V11.735C5.88098 11.9867 5.83931 12.2792 5.71431 12.53L4.58348 14.0783V14.12H7.59681V14.0783L6.46681 12.5725C6.34181 12.3208 6.29931 12.07 6.34181 11.7775V7.59167C6.38348 7.675 6.42514 7.675 6.46681 7.8425L9.31181 14.2033H9.35348L12.1168 7.3C12.0751 7.55 12.0751 7.84333 12.0751 8.05333V12.9908C12.0751 13.1158 12.0335 13.1992 11.9501 13.2833L11.1126 14.0783V14.12H15.2135V14.0783L14.4176 13.2833Z" fill="#2C2C2C"/>
</svg>
