<svg width="50" height="50" viewBox="0 0 50 50" fill="none" xmlns="http://www.w3.org/2000/svg">
<circle cx="25" cy="25" r="24.5" fill="#FAFAFA" stroke="black"/>
<path d="M28.1248 34.1L19.6998 25.7C19.5998 25.6 19.5288 25.4917 19.4868 25.375C19.4448 25.2583 19.4242 25.1333 19.4248 25C19.4248 24.8667 19.4455 24.7417 19.4868 24.625C19.5282 24.5083 19.5992 24.4 19.6998 24.3L28.1248 15.875C28.3582 15.6417 28.6498 15.525 28.9998 15.525C29.3498 15.525 29.6498 15.65 29.8998 15.9C30.1498 16.15 30.2748 16.4417 30.2748 16.775C30.2748 17.1083 30.1498 17.4 29.8998 17.65L22.5498 25L29.8998 32.35C30.1332 32.5833 30.2498 32.871 30.2498 33.213C30.2498 33.555 30.1248 33.8507 29.8748 34.1C29.6248 34.35 29.3332 34.475 28.9998 34.475C28.6665 34.475 28.3748 34.35 28.1248 34.1Z" fill="black"/>
</svg>
