<svg width="50" height="50" viewBox="0 0 50 50" fill="none" xmlns="http://www.w3.org/2000/svg">
<circle cx="25" cy="25" r="24.5" transform="rotate(-180 25 25)" fill="#FAFAFA" stroke="black"/>
<path d="M21.8749 15.9L30.2999 24.3C30.3999 24.4 30.4709 24.5083 30.5129 24.625C30.5549 24.7417 30.5756 24.8667 30.5749 25C30.5749 25.1333 30.5543 25.2583 30.5129 25.375C30.4716 25.4917 30.4006 25.6 30.2999 25.7L21.8749 34.125C21.6416 34.3583 21.3499 34.475 20.9999 34.475C20.6499 34.475 20.3499 34.35 20.0999 34.1C19.8499 33.85 19.7249 33.5583 19.7249 33.225C19.7249 32.8917 19.8499 32.6 20.0999 32.35L27.4499 25L20.0999 17.65C19.8666 17.4167 19.7499 17.129 19.7499 16.787C19.7499 16.445 19.8749 16.1493 20.1249 15.9C20.3749 15.65 20.6666 15.525 20.9999 15.525C21.3333 15.525 21.6249 15.65 21.8749 15.9Z" fill="black"/>
</svg>
