<svg width="18" height="19" viewBox="0 0 18 19" fill="none" xmlns="http://www.w3.org/2000/svg">
<g clip-path="url(#clip0_223_23)">
<path d="M15.1873 3.14901C15.3208 3.11448 15.4613 3.11744 15.5933 3.15756C15.7252 3.19769 15.8436 3.27343 15.9353 3.37646C16.027 3.47948 16.0885 3.6058 16.1131 3.74153C16.1376 3.87725 16.1243 4.01712 16.0745 4.14576L11.5745 15.7708C11.53 15.8859 11.4578 15.9883 11.3642 16.0688C11.2706 16.1493 11.1586 16.2055 11.0382 16.2324C10.9177 16.2592 10.7924 16.2559 10.6735 16.2228C10.5546 16.1896 10.4457 16.1276 10.3565 16.0423L7.82003 13.616L6.91778 14.5175C6.44078 14.9945 5.62478 14.657 5.62478 13.982V11.516L1.73153 7.79226C1.63493 7.69984 1.56479 7.58329 1.52837 7.45466C1.49195 7.32603 1.49057 7.19001 1.52438 7.06067C1.55819 6.93133 1.62595 6.81337 1.72065 6.71902C1.81536 6.62466 1.93356 6.55734 2.06303 6.52401L15.1873 3.14901ZM13.6018 6.37776L7.60328 11.333L10.5808 14.1815L13.6018 6.37776ZM12.4183 5.41026L3.74303 7.64001L6.51203 10.2875L12.4183 5.40876V5.41026Z" fill="#F1F1F1"/>
</g>
<defs>
<clipPath id="clip0_223_23">
<rect width="18" height="18" fill="white" transform="translate(0 0.5)"/>
</clipPath>
</defs>
</svg>
