<svg width="25" height="24" viewBox="0 0 25 24" fill="none" xmlns="http://www.w3.org/2000/svg">
<g clip-path="url(#clip0_304_12)">
<path d="M22.5 5.5H9.5C8.4 5.5 7.5 6.4 7.5 7.5V16.5C7.5 17.0304 7.71071 17.5391 8.08579 17.9142C8.46086 18.2893 8.96957 18.5 9.5 18.5H22.5C23.61 18.5 24.5 17.61 24.5 16.5V7.5C24.5 6.96957 24.2893 6.46086 23.9142 6.08579C23.5391 5.71071 23.0304 5.5 22.5 5.5ZM22.5 16.5H9.5V9.17L16 12.5L22.5 9.17V16.5ZM16 10.81L9.5 7.5H22.5L16 10.81ZM5.5 16.5C5.5 16.67 5.53 16.83 5.55 17H1.5C0.948 17 0.5 16.55 0.5 16C0.5 15.45 0.948 15 1.5 15H5.5V16.5ZM3.5 7H5.55C5.53 7.17 5.5 7.33 5.5 7.5V9H3.5C2.95 9 2.5 8.55 2.5 8C2.5 7.45 2.95 7 3.5 7ZM1.5 12C1.5 11.45 1.95 11 2.5 11H5.5V13H2.5C1.95 13 1.5 12.55 1.5 12Z" fill="white"/>
</g>
<defs>
<clipPath id="clip0_304_12">
<rect width="24" height="24" fill="white" transform="translate(0.5)"/>
</clipPath>
</defs>
</svg>
