<svg width="20" height="20" viewBox="0 0 20 20" fill="none" xmlns="http://www.w3.org/2000/svg">
<path d="M10.0008 1.66675C5.41748 1.66675 1.66748 5.41675 1.66748 10.0001C1.66748 14.5834 5.41748 18.3334 10.0008 18.3334C14.5841 18.3334 18.3341 14.5834 18.3341 10.0001C18.3341 5.41675 14.6258 1.66675 10.0008 1.66675ZM13.1258 13.8751C11.1675 12.6667 8.70915 12.4167 5.79248 13.0834C5.50081 13.1667 5.25081 12.9584 5.16748 12.7084C5.08415 12.4167 5.29248 12.1667 5.54248 12.0834C8.70915 11.3751 11.4591 11.6667 13.6258 13.0001C13.9175 13.1251 13.9591 13.4584 13.8341 13.7084C13.6675 13.9584 13.3758 14.0417 13.1258 13.8751ZM13.9591 11.6251C11.7091 10.2501 8.29248 9.83342 5.66748 10.6667C5.33415 10.7501 4.95915 10.5834 4.87581 10.2501C4.79248 9.91675 4.95915 9.54175 5.29248 9.45842C8.33415 8.54175 12.0841 9.00008 14.6675 10.5834C14.9175 10.7084 15.0425 11.1251 14.8341 11.4167C14.6258 11.7084 14.2508 11.8334 13.9591 11.6251ZM5.24998 8.12508C4.83331 8.25008 4.41665 8.00008 4.29165 7.62508C4.16665 7.20841 4.41665 6.79175 4.79165 6.66675C7.74998 5.79175 12.625 5.95842 15.7083 7.79175C16.0833 8.00008 16.2083 8.50008 16 8.87508C15.7916 9.16675 15.2916 9.29175 14.9166 9.08341C12.25 7.50008 7.79165 7.33341 5.24998 8.12508Z" fill="#2C2C2C"/>
</svg>
