<svg width="20" height="20" viewBox="0 0 20 20" fill="none" xmlns="http://www.w3.org/2000/svg">
<path d="M18.5101 4.71327C17.8742 4.9946 17.1998 5.17942 16.5093 5.26161C17.2368 4.82589 17.7812 4.14055 18.0409 3.33327C17.3576 3.73994 16.6084 4.02494 15.8284 4.17911C15.3039 3.61792 14.6087 3.24574 13.8509 3.12043C13.0931 2.99511 12.3151 3.12368 11.6378 3.48615C10.9606 3.84862 10.4221 4.42468 10.106 5.12477C9.78997 5.82486 9.71406 6.60976 9.8901 7.35744C8.50422 7.2881 7.14841 6.92804 5.91072 6.30066C4.67303 5.67327 3.58114 4.79258 2.70594 3.71577C2.39618 4.24781 2.2334 4.85263 2.23427 5.46827C2.23427 6.67661 2.8501 7.74411 3.78427 8.36911C3.23095 8.35165 2.68981 8.20223 2.20594 7.93327V7.97577C2.20591 8.78067 2.4843 9.56079 2.99388 10.1838C3.50346 10.8069 4.21287 11.2345 5.00177 11.3941C4.48814 11.5334 3.94952 11.554 3.42677 11.4541C3.64921 12.1469 4.08278 12.7528 4.66677 13.1869C5.25076 13.621 5.9559 13.8616 6.68344 13.8749C5.9604 14.4428 5.13251 14.8626 4.24711 15.1102C3.36171 15.3579 2.43618 15.4286 1.52344 15.3183C3.11654 16.3428 4.97102 16.8867 6.8651 16.8849C13.2768 16.8849 16.7818 11.5741 16.7818 6.96827C16.7818 6.81827 16.7784 6.66661 16.7718 6.51744C17.4538 6.0244 18.0424 5.41291 18.5101 4.71327Z" fill="#2C2C2C"/>
</svg>
