<svg width="20" height="20" viewBox="0 0 20 20" fill="none" xmlns="http://www.w3.org/2000/svg">
<path d="M10.2032 3.33325C10.6482 3.33575 11.7615 3.34659 12.9448 3.39409L13.3648 3.41242C14.5557 3.46825 15.7457 3.56492 16.3365 3.72909C17.124 3.95075 17.7423 4.59575 17.9515 5.41409C18.2848 6.71409 18.3265 9.24909 18.3315 9.86325L18.3323 9.98992V10.1349C18.3265 10.7491 18.2848 13.2849 17.9515 14.5841C17.7398 15.4049 17.1207 16.0508 16.3365 16.2691C15.7457 16.4333 14.5557 16.5299 13.3648 16.5858L12.9448 16.6049C11.7615 16.6516 10.6482 16.6633 10.2032 16.6649L10.0073 16.6658H9.79484C8.85317 16.6599 4.91484 16.6174 3.6615 16.2691C2.87484 16.0474 2.25567 15.4024 2.0465 14.5841C1.71317 13.2841 1.6715 10.7491 1.6665 10.1349V9.86325C1.6715 9.24909 1.71317 6.71325 2.0465 5.41409C2.25817 4.59325 2.87734 3.94742 3.66234 3.72992C4.91484 3.38075 8.854 3.33825 9.79567 3.33325H10.2032ZM8.33234 7.08325V12.9166L13.3323 9.99992L8.33234 7.08325Z" fill="#2C2C2C"/>
</svg>
